<svg width="20" height="20" viewBox="0 0 20 20" fill="none" xmlns="http://www.w3.org/2000/svg">
<g clip-path="url(#clip0_1338_5799)">
<path fill-rule="evenodd" clip-rule="evenodd" d="M18.3172 9.18027L2.63912 0.12832C2.49572 0.0448532 2.33289 0.000597343 2.16697 0H2.16424C1.99823 0.000659318 1.83531 0.0449379 1.69181 0.128398C1.5473 0.210815 1.42732 0.330201 1.34419 0.474305C1.26106 0.618409 1.21777 0.782038 1.21877 0.948398V19.0521C1.21811 19.2186 1.26145 19.3823 1.3444 19.5266C1.42734 19.671 1.54695 19.7908 1.69112 19.8741C1.83528 19.9573 1.99888 20.001 2.16534 20.0006C2.33181 20.0003 2.49524 19.956 2.63908 19.8722L18.3172 10.8202C18.4612 10.7371 18.5807 10.6176 18.6638 10.4737C18.7469 10.3297 18.7907 10.1665 18.7907 10.0003C18.7907 9.83405 18.7469 9.67077 18.6638 9.52683C18.5807 9.38289 18.4612 9.26337 18.3172 9.18027Z" fill="#fff"/>
</g>
<defs>
<clipPath id="clip0_1338_5799">
<rect width="20" height="20" fill="#fff"/>
</clipPath>
</defs>
</svg>
