<svg width="626" height="765" viewBox="0 0 626 765" fill="none" xmlns="http://www.w3.org/2000/svg">
<path d="M-1597.07 764.726L625.898 764.727L625.899 -503.902L-1597.07 -503.902L-1597.07 764.726Z" fill="#222222"/>
<mask id="mask0_1338_4091" style="mask-type:luminance" maskUnits="userSpaceOnUse" x="-1588" y="-504" width="2010" height="1269">
<path d="M421.102 -503.902C270.162 -349.216 -6.07092 -309.709 -229.505 -277.782C-299.475 -267.786 -364.262 -258.525 -418.362 -246.703C-726.873 -179.276 -900.09 63.5867 -1067.81 298.74C-1166.4 436.972 -1263.1 572.542 -1384.28 668.37C-1443.1 714.874 -1512.06 743.036 -1581.84 764.726L-1587.62 764.726C-1516.21 742.86 -1445.42 714.535 -1385.34 667.033C-1264.34 571.352 -1167.71 435.881 -1069.2 297.755C-901.287 62.3361 -727.876 -180.799 -418.727 -248.366C-364.579 -260.201 -299.754 -269.462 -229.743 -279.468C-7.22687 -311.26 267.767 -350.579 418.631 -503.899L421.102 -503.899L421.102 -503.902Z" fill="white"/>
</mask>
<g mask="url(#mask0_1338_4091)">
<path d="M-1587.62 764.726L421.102 764.727L421.102 -503.902L-1587.62 -503.902L-1587.62 764.726Z" fill="url(#paint0_linear_1338_4091)"/>
</g>
<mask id="mask1_1338_4091" style="mask-type:luminance" maskUnits="userSpaceOnUse" x="-1589" y="-504" width="1945" height="1269">
<path d="M355.484 -503.902C201.467 -378.178 -44.7488 -338.034 -247.385 -305.026C-317.104 -293.67 -381.653 -283.153 -435.468 -270.284C-742.378 -196.892 -910.682 49.1315 -1073.65 287.353C-1169.44 427.382 -1263.39 564.721 -1382.6 662.83C-1441.93 711.669 -1512.32 741.43 -1583.43 764.726L-1588.95 764.726C-1516.3 741.238 -1444.18 711.31 -1383.68 661.515C-1264.66 563.556 -1170.77 426.32 -1075.05 286.393C-911.902 47.9032 -743.407 -198.398 -435.858 -271.944C-381.98 -284.829 -317.403 -295.346 -247.655 -306.708C-46.0128 -339.553 198.882 -379.47 352.693 -503.902L355.484 -503.902Z" fill="white"/>
</mask>
<g mask="url(#mask1_1338_4091)">
<path d="M-1588.95 764.726L355.484 764.727L355.484 -503.902L-1588.95 -503.902L-1588.95 764.726Z" fill="url(#paint1_linear_1338_4091)"/>
</g>
<mask id="mask2_1338_4091" style="mask-type:luminance" maskUnits="userSpaceOnUse" x="-1591" y="-504" width="1873" height="1269">
<path d="M281.047 -503.902C129.32 -404.481 -85.2925 -365.191 -265.344 -332.241C-334.77 -319.535 -399.052 -307.77 -452.588 -293.856C-757.805 -214.533 -921.155 34.574 -1079.32 275.777C-1172.29 417.558 -1263.47 556.612 -1380.66 656.973C-1440.6 708.3 -1512.59 739.738 -1585.17 764.726L-1590.43 764.726C-1516.42 739.53 -1442.79 707.929 -1381.77 655.681C-1264.78 555.483 -1173.66 416.525 -1080.75 274.843C-922.407 33.3681 -758.872 -216.017 -453.023 -295.506C-399.462 -309.427 -335.132 -321.202 -265.658 -333.914C-86.7024 -366.666 126.442 -405.703 277.773 -503.902L281.047 -503.902Z" fill="white"/>
</mask>
<g mask="url(#mask2_1338_4091)">
<path d="M-1590.42 764.726L281.047 764.727L281.047 -503.902L-1590.42 -503.902L-1590.42 764.726Z" fill="url(#paint2_linear_1338_4091)"/>
</g>
<mask id="mask3_1338_4091" style="mask-type:luminance" maskUnits="userSpaceOnUse" x="-1593" y="-504" width="1790" height="1269">
<path d="M196.477 -503.902C53.4316 -427.919 -127.937 -391.031 -283.428 -359.424C-352.562 -345.372 -416.574 -332.359 -469.777 -317.418C-773.203 -232.199 -931.555 19.9013 -1084.88 264.012C-1175 407.498 -1263.4 548.225 -1378.53 650.796C-1439.12 704.769 -1512.87 737.95 -1587.01 764.726L-1592.05 764.726C-1516.56 737.726 -1441.25 704.382 -1379.67 649.526C-1264.72 547.124 -1176.39 406.494 -1086.33 263.109C-932.831 18.7306 -774.301 -233.655 -470.237 -319.052C-416.971 -334.013 -352.931 -347.032 -283.768 -361.09C-129.462 -392.457 50.3893 -429.019 192.78 -503.902L196.477 -503.902Z" fill="white"/>
</mask>
<g mask="url(#mask3_1338_4091)">
<path d="M-1592.05 764.726L196.477 764.727L196.477 -503.902L-1592.05 -503.902L-1592.05 764.726Z" fill="url(#paint3_linear_1338_4091)"/>
</g>
<mask id="mask4_1338_4091" style="mask-type:luminance" maskUnits="userSpaceOnUse" x="-1594" y="-504" width="1696" height="1269">
<path d="M101.266 -503.902C-25.9264 -448.25 -172.706 -415.412 -301.607 -386.578C-370.408 -371.189 -434.108 -356.938 -487.002 -340.964C-788.555 -249.885 -941.864 5.12942 -1090.3 252.055C-1177.56 397.198 -1263.14 539.553 -1376.19 644.296C-1437.46 701.061 -1513.1 736.059 -1588.89 764.726L-1593.72 764.726C-1516.68 735.819 -1439.54 700.665 -1377.35 643.049C-1264.49 538.475 -1178.97 396.223 -1091.77 251.178C-943.166 3.97464 -789.682 -251.325 -487.504 -342.595C-434.588 -358.579 -370.836 -372.839 -301.984 -388.238C-174.418 -416.774 -29.3243 -449.251 96.877 -503.902L101.266 -503.902Z" fill="white"/>
</mask>
<g mask="url(#mask4_1338_4091)">
<path d="M-1593.72 764.726L101.266 764.727L101.266 -503.902L-1593.72 -503.902L-1593.72 764.726Z" fill="url(#paint4_linear_1338_4091)"/>
</g>
<mask id="mask5_1338_4091" style="mask-type:luminance" maskUnits="userSpaceOnUse" x="-908" y="5" width="1534" height="760">
<path d="M625.906 8.40564C592.911 61.3132 558.814 100.153 504.764 102.062C468.771 103.335 438.837 89.1679 409.195 75.1413C359.944 51.8288 311.492 28.9 237.696 78.7431C211.084 96.7169 183.354 124.841 156.138 167.496C132.499 204.544 109.259 252.545 87.4772 314.358L87.4645 314.39C0.254109 541.914 -190.74 549.323 -391.513 557.108C-475.239 560.355 -560.675 563.669 -640.864 583.079C-741.64 607.473 -834.253 657.393 -905.077 764.73L-907.255 764.73C-835.945 656.161 -742.495 605.758 -640.771 581.134C-560.338 561.663 -474.814 558.346 -390.998 555.096C-191.121 547.346 -0.974834 539.973 85.5655 314.239C107.417 252.225 130.755 204.035 154.5 166.818C181.957 123.782 209.985 95.3767 236.912 77.1886C311.826 26.5938 360.747 49.74 410.472 73.2764C439.948 87.2262 469.717 101.317 505.282 100.057C558.992 98.1565 592.825 58.6229 625.906 5.08527L625.906 8.40564Z" fill="white"/>
</mask>
<g mask="url(#mask5_1338_4091)">
<path d="M-907.258 764.728L625.906 764.729L625.906 5.08661L-907.258 5.08647L-907.258 764.728Z" fill="url(#paint5_linear_1338_4091)"/>
</g>
<mask id="mask6_1338_4091" style="mask-type:luminance" maskUnits="userSpaceOnUse" x="-872" y="-22" width="1498" height="787">
<path d="M625.906 -18.3687C593.756 38.4286 560.576 81.2057 503.837 85.5784C467.481 88.3805 436.566 75.6941 405.953 63.1294C355.088 42.2542 305.049 21.7183 232.586 74.0628C206.457 92.9387 179.645 121.868 153.995 165.119C131.714 202.685 110.317 251.041 91.0117 312.953L91.0022 312.985C12.8202 541.178 -180.105 556.705 -382.9 573.022C-467.469 579.825 -553.761 586.767 -634.046 609.369C-723.406 634.524 -805.405 679.16 -869.477 764.726L-871.713 764.726C-807.148 678.021 -724.333 632.861 -634.033 607.44C-553.52 584.774 -467.129 577.826 -382.465 571.013C-180.566 554.769 11.5055 539.313 89.084 312.879C108.452 250.778 129.93 202.253 152.305 164.527C178.187 120.889 205.288 91.6623 231.735 72.5593C305.297 19.4247 355.815 40.1591 407.169 61.2358C437.605 73.7269 468.345 86.3429 504.284 83.5727C560.738 79.2224 593.619 35.5977 625.906 -21.9641L625.906 -18.3687Z" fill="white"/>
</mask>
<g mask="url(#mask6_1338_4091)">
<path d="M-871.713 764.726L625.906 764.727L625.906 -21.9641L-871.713 -21.9642L-871.713 764.726Z" fill="url(#paint6_linear_1338_4091)"/>
</g>
<mask id="mask7_1338_4091" style="mask-type:luminance" maskUnits="userSpaceOnUse" x="-835" y="-54" width="1461" height="819">
<path d="M625.903 -49.2719C594.073 13.6317 562.101 62.592 501.201 69.7828C464.538 74.1107 432.698 62.9278 401.167 51.8473C348.781 33.4416 297.25 15.3366 226.241 70.0898C200.633 89.8358 174.783 119.53 150.743 163.299C129.863 201.313 110.352 249.931 93.5523 311.836L93.5428 311.868C24.5258 540.337 -169.991 563.95 -374.456 588.772C-459.717 599.123 -546.721 609.682 -626.954 635.433C-703.85 660.111 -774.575 698.81 -831.722 764.726L-834.078 764.726C-776.411 697.751 -704.863 658.515 -627.027 633.536C-546.565 607.715 -459.46 597.14 -374.097 586.776C-170.546 562.066 23.1031 538.558 91.5929 311.884C108.443 249.777 128.037 200.97 149.015 162.78C173.271 118.621 199.401 88.6234 225.311 68.6472C297.389 13.0687 349.423 31.3464 402.313 49.928C433.664 60.9414 465.322 72.0635 501.56 67.7836C562.244 60.6183 593.854 10.5897 625.906 -53.2383L625.906 -49.2719L625.903 -49.2719Z" fill="white"/>
</mask>
<g mask="url(#mask7_1338_4091)">
<path d="M-834.078 764.726L625.906 764.727L625.906 -53.2321L-834.078 -53.2322L-834.078 764.726Z" fill="url(#paint7_linear_1338_4091)"/>
</g>
<mask id="mask8_1338_4091" style="mask-type:luminance" maskUnits="userSpaceOnUse" x="-794" y="-91" width="1420" height="856">
<path d="M625.906 -85.9138C593.638 -14.1303 563.806 44.1383 496.856 54.7454C459.962 60.5928 427.249 50.9261 394.854 41.3554C341.036 25.4511 288.097 9.81235 218.667 66.8783C193.634 87.4559 168.793 117.86 146.402 162.07C126.951 200.471 109.358 249.272 95.0988 311.056L95.0924 311.088C35.3581 539.435 -160.406 571.096 -366.19 604.376C-452 618.252 -539.563 632.413 -619.606 661.269C-682.983 684.114 -741.685 716.204 -791.14 764.726L-793.645 764.726C-743.619 715.238 -684.091 682.589 -619.764 659.401C-539.496 630.465 -451.832 616.288 -365.92 602.396C-161.048 569.263 33.8528 537.742 93.1236 311.158C107.43 249.179 125.093 200.203 144.627 161.638C167.218 117.035 192.332 86.3172 217.667 65.4933C288.138 7.56686 341.591 23.3592 395.927 39.4137C428.132 48.93 460.657 58.5391 497.139 52.7558C563.914 42.1775 593.273 -17.4539 625.906 -90.3152L625.906 -85.9138Z" fill="white"/>
</mask>
<g mask="url(#mask8_1338_4091)">
<path d="M-793.648 764.726L625.906 764.727L625.906 -90.3152L-793.648 -90.3154L-793.648 764.726Z" fill="url(#paint8_linear_1338_4091)"/>
</g>
<mask id="mask9_1338_4091" style="mask-type:luminance" maskUnits="userSpaceOnUse" x="-750" y="-136" width="1376" height="901">
<path d="M625.9 -130.224C624.252 -126.177 622.623 -122.156 621.009 -118.171C589.148 -39.5004 562.501 26.2981 490.813 40.5198C453.734 47.8769 420.212 39.7489 387.016 31.7008C331.861 18.3268 277.605 5.17667 209.884 64.4561C185.463 85.8335 161.67 116.893 140.971 161.465C122.991 200.183 107.347 249.079 95.6482 310.646L95.6418 310.678C45.2947 538.5 -151.381 578.155 -358.117 619.838C-444.328 637.22 -532.294 654.954 -612.013 686.865C-660.839 706.409 -706.575 731.315 -746.963 764.723L-749.729 764.723C-708.683 730.429 -662.064 704.96 -612.254 685.025C-532.322 653.031 -444.248 635.275 -357.936 617.874C-152.111 576.376 43.6942 536.894 93.6538 310.831C105.388 249.076 121.095 200.004 139.155 161.119C160.041 116.148 184.091 84.765 208.807 63.135C277.554 2.95993 332.331 16.2412 388.02 29.74C421.028 37.7433 454.363 45.8202 491.013 38.5526C561.224 24.6252 587.605 -40.5144 619.148 -118.395C621.371 -123.881 623.617 -129.43 625.906 -135.028L625.906 -130.224L625.9 -130.224Z" fill="white"/>
</mask>
<g mask="url(#mask9_1338_4091)">
<path d="M-749.723 764.726L625.906 764.727L625.906 -135.027L-749.723 -135.027L-749.723 764.726Z" fill="url(#paint9_linear_1338_4091)"/>
</g>
<mask id="mask10_1338_4091" style="mask-type:luminance" maskUnits="userSpaceOnUse" x="-702" y="-189" width="1328" height="954">
<path d="M625.906 -183.191C619.422 -166.794 613.531 -150.625 607.827 -134.964C579.068 -55.9894 555.013 10.0651 483.112 27.1752C445.912 36.0294 411.64 29.4559 377.699 22.9465C321.299 12.1282 265.82 1.48599 199.921 62.8734C177.743 83.5342 156.491 112.493 138.332 152.73C120.129 193.06 105.035 244.704 95.2195 310.649L95.2131 310.678C54.3422 537.586 -142.902 585.167 -350.236 635.18C-436.696 656.036 -524.923 677.314 -604.159 712.216C-637.599 726.946 -669.438 744.13 -698.896 764.726L-701.97 764.726C-671.731 743.34 -638.949 725.593 -604.489 710.415C-525.021 675.411 -436.696 654.107 -350.137 633.229C-143.721 583.44 52.6464 536.069 93.2061 310.931C103.051 244.777 118.211 192.932 136.5 152.413C154.83 111.798 176.32 82.5329 198.769 61.6226C265.671 -0.698823 321.68 10.0459 378.62 20.9665C412.374 27.4407 446.462 33.9789 483.214 25.2303C553.641 8.46887 577.452 -56.9235 605.925 -135.111C612.181 -152.288 618.659 -170.08 625.906 -188.111L625.906 -183.191H625.906Z" fill="white"/>
</mask>
<g mask="url(#mask10_1338_4091)">
<path d="M-701.97 764.726L625.906 764.727L625.906 -188.114L-701.97 -188.114L-701.97 764.726Z" fill="url(#paint10_linear_1338_4091)"/>
</g>
<mask id="mask11_1338_4091" style="mask-type:luminance" maskUnits="userSpaceOnUse" x="-651" y="-247" width="1277" height="1012">
<path d="M625.906 -242.489C612.397 -211.215 602.292 -179.976 592.768 -150.541C567.16 -71.397 545.74 -5.20179 473.744 14.7712C436.509 25.1033 401.535 20.0908 366.901 15.1296C309.361 6.88315 252.755 -1.2258 188.787 62.1704C165.723 85.0288 144.157 117.24 126.938 162.311C111.987 201.451 100.323 250.283 93.8062 311.092L93.7999 311.127C62.475 536.716 -134.995 592.138 -342.563 650.394C-429.113 674.685 -517.428 699.469 -596.077 737.317C-613.604 745.752 -630.641 754.856 -647.085 764.73L-650.502 764.73C-633.131 754.168 -615.08 744.492 -596.49 735.548C-517.648 697.611 -429.215 672.792 -342.551 648.468C-135.909 590.475 60.6776 535.299 91.7738 311.472C98.3125 250.482 110.028 201.461 125.052 162.129C142.423 116.655 164.227 84.1107 187.571 60.9741C252.501 -3.37534 309.65 4.81034 367.743 13.1367C402.177 18.0724 436.947 23.0528 473.757 12.8392C544.272 -6.72443 565.476 -72.2575 590.828 -150.605C600.796 -181.415 611.406 -214.196 625.9 -246.996L625.9 -242.489L625.906 -242.489Z" fill="white"/>
</mask>
<g mask="url(#mask11_1338_4091)">
<path d="M-650.499 764.728L625.906 764.729L625.906 -246.995L-650.499 -246.995L-650.499 764.728Z" fill="url(#paint11_linear_1338_4091)"/>
</g>
<mask id="mask12_1338_4091" style="mask-type:luminance" maskUnits="userSpaceOnUse" x="-597" y="-307" width="1223" height="1072">
<path d="M625.9 -302.732C623.693 -298.34 621.492 -293.894 619.304 -289.32C599.154 -247.154 587.042 -204.367 575.851 -164.834C553.437 -85.6577 534.695 -19.4402 462.737 3.36058C425.521 15.1544 389.909 11.7157 354.65 8.30906C296.065 2.65042 238.436 -2.91538 176.517 62.3777C155.678 84.35 136.522 114.3 121.52 154.937C106.484 195.664 95.6227 247.116 91.4181 312.015L91.4118 312.047C69.687 535.932 -127.659 599.098 -335.1 665.491C-421.599 693.177 -509.858 721.425 -587.766 762.145C-589.392 762.996 -591.002 763.866 -592.622 764.726L-596.36 764.726C-593.673 763.277 -590.977 761.838 -588.262 760.421C-510.169 719.605 -421.79 691.318 -335.173 663.594C-128.656 597.495 67.8102 534.611 89.3825 312.476C93.5967 247.381 104.511 195.718 119.625 154.783C134.769 113.759 154.144 83.4863 175.234 61.2486C238.087 -5.02018 296.271 0.596834 355.418 6.30985C390.475 9.69731 425.88 13.1136 462.673 1.45415C533.158 -20.8796 551.716 -86.435 573.905 -164.814C585.128 -204.463 597.274 -247.378 617.5 -289.697C620.285 -295.525 623.09 -301.171 625.906 -306.705L625.906 -302.732L625.9 -302.732Z" fill="white"/>
</mask>
<g mask="url(#mask12_1338_4091)">
<path d="M-596.357 764.726L625.906 764.727L625.906 -306.702L-596.357 -306.702L-596.357 764.726Z" fill="url(#paint12_linear_1338_4091)"/>
</g>
<mask id="mask13_1338_4091" style="mask-type:luminance" maskUnits="userSpaceOnUse" x="-542" y="-367" width="1168" height="1132">
<path d="M625.906 -363.426C615.528 -345.106 605.395 -324.88 595.607 -302.448C577.09 -260.003 566.724 -217.268 557.147 -177.782C537.969 -98.7152 521.928 -32.584 450.13 -6.99709C412.996 6.23619 376.813 4.37449 340.988 2.53519C281.463 -0.526031 222.907 -3.53605 163.141 63.5355C141.591 87.7182 122.4 120.857 108.786 166.11C96.9629 205.417 89.354 253.846 88.0647 313.455L88.0647 313.487C75.9812 535.276 -120.901 606.074 -327.86 680.497C-398.931 706.055 -471.194 732.042 -537.508 764.726L-541.49 764.726C-474.087 731.155 -400.433 704.667 -328.019 678.625C-121.978 604.533 74.0377 534.045 86.029 313.967C87.3215 254.179 94.9654 205.573 106.839 166.097C120.574 120.442 139.981 86.9569 161.791 62.4799C222.453 -5.5961 281.571 -2.55722 341.671 0.532751C377.289 2.36564 413.26 4.21458 449.977 -8.87154C520.306 -33.9338 536.184 -99.4029 555.171 -177.673C564.775 -217.261 575.169 -260.112 593.765 -302.742C604.131 -326.502 614.887 -347.79 625.906 -366.986L625.906 -363.426Z" fill="white"/>
</mask>
<g mask="url(#mask13_1338_4091)">
<path d="M-541.49 764.726L625.906 764.727L625.906 -366.986L-541.49 -366.986L-541.49 764.726Z" fill="url(#paint13_linear_1338_4091)"/>
</g>
<mask id="mask14_1338_4091" style="mask-type:luminance" maskUnits="userSpaceOnUse" x="-489" y="-426" width="1115" height="1191">
<path d="M625.906 -422.283C606.125 -393.152 587.277 -357.501 570.068 -313.953C553.215 -271.304 544.615 -228.694 536.667 -189.323C520.757 -110.499 507.447 -44.5729 435.931 -16.2447C398.941 -1.59121 362.249 -1.86947 325.919 -2.14456C265.556 -2.6052 206.181 -3.05308 148.672 65.6787C127.935 90.4627 109.983 123.979 98.2109 169.2C87.9853 208.484 82.4247 256.587 83.7553 315.444L83.7585 315.473C81.3322 534.78 -114.743 613.092 -320.854 695.413C-375.704 717.321 -431.269 739.514 -484.058 764.726L-488.155 764.726C-434.2 738.746 -377.273 716.009 -321.096 693.573C-115.899 611.621 79.3093 533.654 81.7165 316.043C80.3858 257.003 85.9687 208.727 96.242 169.274C108.122 123.64 126.278 89.775 147.262 64.6936C205.634 -5.07145 265.585 -4.61722 326.526 -4.15341C362.649 -3.87826 399.131 -3.60323 435.693 -18.0872C505.742 -45.8333 518.915 -111.098 534.666 -189.128C542.631 -228.588 551.253 -271.292 568.192 -314.165C585.95 -359.101 605.445 -395.672 625.906 -425.417L625.906 -422.283Z" fill="white"/>
</mask>
<g mask="url(#mask14_1338_4091)">
<path d="M-488.152 764.726L625.906 764.727L625.906 -425.417L-488.152 -425.418L-488.152 764.726Z" fill="url(#paint14_linear_1338_4091)"/>
</g>
<mask id="mask15_1338_4091" style="mask-type:luminance" maskUnits="userSpaceOnUse" x="-439" y="-479" width="1065" height="1244">
<path d="M625.906 -475.699C595.29 -440.257 566.632 -391.184 542.745 -323.78C527.575 -280.977 520.757 -238.575 514.456 -199.393C501.842 -120.956 491.293 -55.3496 420.186 -24.328C383.399 -8.27657 346.266 -6.9747 309.498 -5.68557C248.404 -3.54245 188.305 -1.43125 133.162 68.8423C114.604 92.4908 98.8334 123.538 88.7538 164.252C78.652 205.062 74.2664 255.56 78.5186 318.019L78.5217 318.051C85.7622 534.496 -109.17 620.184 -314.068 710.255C-354.227 727.902 -394.768 745.719 -434.229 764.726L-438.3 764.726C-397.648 745.038 -355.818 726.652 -314.398 708.444C-110.405 618.773 83.6632 533.462 76.4829 318.694C72.2212 256.034 76.6259 205.34 86.7754 164.348C96.9503 123.25 112.902 91.8702 131.686 67.9339C187.663 -3.40171 248.341 -5.53525 310.025 -7.69766C346.59 -8.98031 383.513 -10.2758 419.859 -26.1353C489.508 -56.5235 499.956 -121.471 512.443 -199.121C518.756 -238.386 525.593 -280.888 540.836 -323.902C565.238 -392.752 594.575 -442.646 625.906 -478.482L625.906 -475.699Z" fill="white"/>
</mask>
<g mask="url(#mask15_1338_4091)">
<path d="M-438.3 764.726L625.906 764.727L625.906 -478.482L-438.3 -478.482L-438.3 764.726Z" fill="url(#paint15_linear_1338_4091)"/>
</g>
<mask id="mask16_1338_4091" style="mask-type:luminance" maskUnits="userSpaceOnUse" x="-394" y="-504" width="1002" height="1269">
<path d="M607.359 -503.902C571.579 -466.623 538.651 -411.716 513.591 -331.872C500.136 -288.999 495.109 -246.875 490.466 -207.955C481.171 -130.034 473.397 -64.8652 402.817 -31.2014C366.307 -13.7874 328.796 -10.9021 291.65 -8.04879C229.931 -3.30509 169.215 1.36196 116.524 73.059C97.5241 98.9146 82.1379 133.007 74.1003 177.94C67.1201 216.968 65.6879 264.163 72.2488 321.213L72.2488 321.244C89.137 534.448 -104.3 627.36 -307.635 725.024C-334.806 738.075 -362.152 751.212 -389.192 764.73L-393.137 764.73C-364.943 750.585 -336.397 736.876 -308.044 723.258C-105.614 626.026 86.9649 533.527 70.2259 321.996C63.6428 264.764 65.0877 217.387 72.0996 178.177C80.2071 132.837 95.7711 98.3836 114.997 72.221C168.478 -0.554055 229.778 -5.26584 292.094 -10.0543C329.034 -12.8949 366.335 -15.761 402.414 -32.9704C471.539 -65.94 479.24 -130.459 488.44 -207.597C493.092 -246.606 498.132 -288.823 511.654 -331.914C536.602 -411.4 569.296 -466.342 604.854 -503.902L607.359 -503.902Z" fill="white"/>
</mask>
<g mask="url(#mask16_1338_4091)">
<path d="M-393.137 764.728L607.359 764.729L607.359 -503.9L-393.137 -503.9L-393.137 764.728Z" fill="url(#paint16_linear_1338_4091)"/>
</g>
<mask id="mask17_1338_4091" style="mask-type:luminance" maskUnits="userSpaceOnUse" x="-353" y="-504" width="917" height="1269">
<path d="M563.274 -503.902C531.539 -465.968 503.304 -412.622 482.954 -338.174C471.236 -295.308 468.013 -253.538 465.034 -214.942C459.07 -137.676 454.084 -73.0579 384.162 -36.8127C348.001 -18.0647 310.169 -13.6057 272.706 -9.19137C210.466 -1.8566 149.242 5.35977 99.1012 78.3491C81.0157 104.675 66.957 138.969 60.8121 183.64C55.4769 222.431 56.1121 269.046 65.2739 325.05L65.277 325.079C91.7876 534.672 -99.8262 634.649 -301.243 739.738C-317.112 748.016 -333.038 756.327 -348.926 764.726L-352.683 764.726C-335.715 755.741 -318.694 746.858 -301.739 738.014C-101.217 633.392 89.5423 533.859 63.2573 325.911C54.0701 269.744 53.4382 222.946 58.7987 183.959C65.0008 138.882 79.2215 104.23 97.5165 77.5974C148.416 3.50448 210.228 -3.77902 273.065 -11.1842C310.309 -15.5729 347.922 -20.0064 383.676 -38.54C452.16 -74.0335 457.098 -138.009 463.002 -214.501C465.987 -253.18 469.213 -295.039 480.995 -338.136C501.281 -412.347 529.348 -465.741 560.914 -503.902L563.274 -503.902Z" fill="white"/>
</mask>
<g mask="url(#mask17_1338_4091)">
<path d="M-352.686 764.726L563.273 764.727L563.274 -503.902L-352.686 -503.902L-352.686 764.726Z" fill="url(#paint17_linear_1338_4091)"/>
</g>
<mask id="mask18_1338_4091" style="mask-type:luminance" maskUnits="userSpaceOnUse" x="-318" y="-504" width="839" height="1269">
<path d="M520.133 -503.901C491.552 -465.586 466.994 -413.411 450.522 -342.648C440.557 -299.833 439.141 -258.498 437.832 -220.308C435.215 -143.836 433.024 -79.8731 363.88 -41.1137C328.113 -21.0607 290.036 -15.0375 252.331 -9.0718C189.682 0.841157 128.055 10.5942 80.5465 84.7543C64.5602 109.711 52.4228 141.366 47.4242 181.517C42.4162 221.76 44.5789 270.516 57.2212 329.571L57.2276 329.597C93.3159 535.213 -96.1417 642.078 -295.291 754.412C-301.376 757.844 -307.47 761.283 -313.564 764.725L-317.118 764.725C-310.03 760.716 -302.945 756.718 -295.869 752.729C-97.5961 640.894 91.0231 534.5 55.2142 330.48C42.5369 271.229 40.3679 222.288 45.4014 181.865C50.4475 141.34 62.7246 109.34 78.911 84.0761C127.137 8.79647 189.358 -1.04928 252.611 -11.0614C290.103 -16.9951 327.966 -22.9864 363.315 -42.7995C431.036 -80.7624 433.205 -144.082 435.797 -219.793C437.105 -258.083 438.524 -299.529 448.534 -342.523C464.968 -413.117 489.38 -465.385 517.815 -503.904L520.133 -503.904L520.133 -503.901Z" fill="white"/>
</mask>
<g mask="url(#mask18_1338_4091)">
<path d="M-317.118 764.728L520.133 764.729L520.133 -503.9L-317.118 -503.9L-317.118 764.728Z" fill="url(#paint18_linear_1338_4091)"/>
</g>
<mask id="mask19_1338_4091" style="mask-type:luminance" maskUnits="userSpaceOnUse" x="-286" y="-504" width="764" height="1269">
<path d="M477.656 -503.902C451.482 -465.239 429.85 -413.719 416.699 -345.244C408.512 -302.61 408.906 -261.759 409.275 -224.02C410.002 -148.462 410.611 -85.2707 342.369 -44.061C307.075 -22.7477 268.808 -15.1634 230.919 -7.65591C167.968 4.81925 106.045 17.0897 61.2556 92.2893C45.1041 119.408 33.7638 153.923 31.4297 197.836C29.4036 235.981 34.1702 281.199 48.4735 334.794L48.483 334.823C93.5299 533.667 -88.4043 646.913 -282.301 764.726L-285.649 764.726C-91.615 646.852 91.3927 533.984 46.4855 335.776C32.1441 282.017 27.3616 236.63 29.4004 198.322C31.7536 154.013 43.2273 119.133 59.5693 91.6944C105.039 15.3591 167.555 2.97031 231.113 -9.62319C268.783 -17.0891 306.821 -24.6254 341.718 -45.6989C408.566 -86.064 407.963 -148.619 407.239 -223.412C406.867 -261.228 406.47 -302.163 414.705 -345.029C427.84 -413.432 449.383 -465.04 475.456 -503.899L477.656 -503.899L477.656 -503.902Z" fill="white"/>
</mask>
<g mask="url(#mask19_1338_4091)">
<path d="M-285.649 764.726L477.656 764.727L477.656 -503.902L-285.649 -503.902L-285.649 764.726Z" fill="url(#paint19_linear_1338_4091)"/>
</g>
<mask id="mask20_1338_4091" style="mask-type:luminance" maskUnits="userSpaceOnUse" x="-259" y="-504" width="695" height="1269">
<path d="M435.25 -503.902C410.813 -464.775 391.47 -413.38 381.292 -345.915C374.89 -303.481 377.094 -263.215 379.13 -226.007C383.21 -151.507 386.621 -89.1988 319.392 -45.6125C284.615 -23.0644 246.24 -13.9415 208.24 -4.90505C145.098 10.1067 82.9853 24.8786 40.987 100.99C26.8553 126.602 17.2489 158.392 15.6865 197.816C14.1208 237.328 20.6373 284.493 38.7704 340.759L38.7799 340.788C91.0579 527.522 -72.4798 645.224 -254.91 764.727L-258.063 764.727C-75.5221 645.237 88.8857 527.881 36.811 341.825C18.6176 285.37 12.082 238.019 13.6539 198.322C15.2291 158.532 24.9531 126.398 39.2595 100.475C81.8897 23.2184 144.6 8.30582 208.345 -6.85311C246.132 -15.8385 284.291 -24.91 318.662 -47.1959C384.516 -89.8929 381.14 -151.575 377.1 -225.328C375.058 -262.629 372.848 -303.004 379.279 -345.621C389.457 -413.064 408.724 -464.577 433.078 -503.902L435.25 -503.902Z" fill="white"/>
</mask>
<g mask="url(#mask20_1338_4091)">
<path d="M-258.06 764.727L435.25 764.727L435.25 -503.902L-258.06 -503.902L-258.06 764.727Z" fill="url(#paint20_linear_1338_4091)"/>
</g>
<mask id="mask21_1338_4091" style="mask-type:luminance" maskUnits="userSpaceOnUse" x="-234" y="-504" width="627" height="1269">
<path d="M392.719 -503.902C369.409 -464.11 351.864 -412.232 344.48 -344.633C339.879 -302.511 343.89 -262.879 347.596 -226.259C355.017 -152.944 361.223 -91.6266 295.127 -45.734C260.935 -21.996 222.512 -11.3409 184.461 -0.794574C121.237 16.7314 59.0445 33.9759 19.917 110.858C6.75063 136.733 -1.56645 168.506 -1.40132 207.461C-1.23937 246.505 7.43974 292.749 28.2753 347.477L28.2849 347.506C87.219 522.894 -59.5511 643.637 -230.793 764.727L-233.772 764.727C-62.4569 643.717 85.0151 523.31 26.3382 348.632C5.43272 293.719 -3.27498 247.285 -3.44011 208.056C-3.60523 168.733 4.8103 136.618 18.1417 110.426C57.8599 32.3766 120.649 14.9721 184.48 -2.72347C222.315 -13.2122 260.525 -23.8033 294.317 -47.2662C359.06 -92.2152 352.918 -152.918 345.57 -225.498C341.854 -262.201 337.834 -301.923 342.457 -344.255C349.847 -411.89 367.333 -463.902 390.575 -503.902L392.719 -503.902Z" fill="white"/>
</mask>
<g mask="url(#mask21_1338_4091)">
<path d="M-233.775 764.727L392.719 764.727L392.719 -503.902L-233.775 -503.902L-233.775 764.727Z" fill="url(#paint21_linear_1338_4091)"/>
</g>
<mask id="mask22_1338_4091" style="mask-type:luminance" maskUnits="userSpaceOnUse" x="-213" y="-504" width="563" height="1269">
<path d="M349.891 -503.902C327.086 -463.188 310.874 -410.239 306.263 -341.354C303.469 -299.604 309.28 -260.681 314.65 -224.718C325.397 -152.713 334.384 -92.4904 269.54 -44.381C235.992 -19.4914 197.585 -7.32973 159.553 4.71361C96.3576 24.725 34.1938 44.407 -1.99939 121.935C-15.0483 149.886 -22.1618 184.282 -18.7543 226.493C-15.7945 263.154 -4.902 305.691 16.9181 354.991L16.9276 355.02C82.0067 519.663 -49.3138 642.284 -209.635 764.727L-212.461 764.727C-52.1021 642.419 79.7805 520.13 15.0095 356.21C-6.8868 306.747 -17.8175 264.044 -20.7899 227.219C-24.226 184.637 -17.0204 149.877 -3.81275 121.58C32.9266 42.8812 95.6843 23.0105 159.484 2.80711C197.303 -9.16585 235.497 -21.2604 268.647 -45.8588C332.167 -92.9862 323.269 -152.605 312.627 -223.886C307.248 -259.93 301.424 -298.942 304.231 -340.9C308.845 -409.846 324.981 -462.974 347.719 -503.906L349.891 -503.906L349.891 -503.902Z" fill="white"/>
</mask>
<g mask="url(#mask22_1338_4091)">
<path d="M-212.461 764.727L349.891 764.727L349.891 -503.902L-212.461 -503.902L-212.461 764.727Z" fill="url(#paint22_linear_1338_4091)"/>
</g>
<mask id="mask23_1338_4091" style="mask-type:luminance" maskUnits="userSpaceOnUse" x="-194" y="-504" width="501" height="1269">
<path d="M306.727 -503.902C283.782 -461.995 268.476 -407.354 266.78 -336.057C265.802 -294.735 273.398 -256.593 280.416 -221.356C294.472 -150.791 306.228 -91.7706 242.743 -41.5212C209.904 -15.5281 171.579 -1.87904 133.63 11.6357C70.574 34.091 8.54678 56.1817 -24.6422 134.219C-36.6113 162.358 -42.2894 196.595 -36.9765 238.086C-32.3622 274.123 -19.4627 315.617 4.79627 363.311L4.80579 363.336C75.5375 517.741 -41.4003 641.251 -191.041 764.727L-193.731 764.727C-44.09 641.433 73.2955 518.256 2.91309 364.587C-21.4221 316.74 -34.3693 275.086 -39.0026 238.892C-44.3599 197.033 -38.6088 162.432 -26.4967 133.956C7.19717 54.7422 69.8182 32.4374 133.481 9.76451C171.217 -3.67347 209.326 -17.2458 241.781 -42.9351C303.964 -92.1544 292.328 -150.583 278.409 -220.441C271.372 -255.774 263.753 -294.019 264.741 -335.513C266.44 -406.922 281.693 -461.755 304.583 -503.899L306.727 -503.899L306.727 -503.902Z" fill="white"/>
</mask>
<g mask="url(#mask23_1338_4091)">
<path d="M-193.731 764.727L306.727 764.727L306.727 -503.902L-193.731 -503.902L-193.731 764.727Z" fill="url(#paint23_linear_1338_4091)"/>
</g>
<mask id="mask24_1338_4091" style="mask-type:luminance" maskUnits="userSpaceOnUse" x="-178" y="-504" width="442" height="1269">
<path d="M263.313 -503.902C239.495 -460.53 224.611 -403.576 226.138 -328.703C226.97 -287.9 236.342 -250.605 245.002 -216.145C262.344 -147.138 276.847 -89.4196 214.836 -37.123C182.758 -10.0679 144.584 5.04308 106.784 20.0101C43.9783 44.8772 -17.8076 69.3382 -47.9384 147.743C-58.0784 174.126 -62.4418 205.516 -57.1194 242.673C-51.7842 279.919 -36.7315 322.933 -8.03296 372.469L-8.01706 372.491C67.9006 517.046 -35.5406 640.595 -174.705 764.727L-177.284 764.727C-38.1543 640.816 65.6427 517.616 -9.88754 373.793C-38.6782 324.084 -53.788 280.904 -59.1454 243.504C-64.5155 206.002 -60.0949 174.267 -49.8279 147.557C-19.2398 67.9691 43.1367 43.2747 106.549 18.1676C144.133 3.28698 182.092 -11.7409 213.794 -38.4825C274.542 -89.7139 260.185 -146.85 243.014 -215.16C234.331 -249.713 224.935 -287.11 224.096 -328.086C222.566 -403.103 237.39 -460.274 261.147 -503.906L263.313 -503.906L263.313 -503.902Z" fill="white"/>
</mask>
<g mask="url(#mask24_1338_4091)">
<path d="M-177.303 764.727L276.828 764.727L276.828 -503.902L-177.303 -503.902L-177.303 764.727Z" fill="url(#paint24_linear_1338_4091)"/>
</g>
<mask id="mask25_1338_4091" style="mask-type:luminance" maskUnits="userSpaceOnUse" x="-163" y="-504" width="391" height="1269">
<path d="M219.664 -503.902C194.122 -458.825 179.11 -398.925 184.347 -319.276C186.992 -279.061 198.123 -242.672 208.409 -209.053C229.006 -141.726 246.231 -85.418 185.795 -31.1542C154.534 -3.08185 116.581 13.4654 79.0002 29.8526C16.5506 57.0837 -44.8796 83.8701 -71.9046 162.515C-81.6475 190.875 -84.4295 224.616 -75.3375 264.45C-67.4428 299.051 -50.5927 338.239 -21.5924 382.478L-21.5765 382.5C59.057 517.536 -31.6466 640.359 -160.503 764.727L-162.967 764.727C-34.1872 640.627 56.7864 518.172 -23.4121 383.863C-52.4949 339.493 -69.399 300.158 -77.3287 265.403C-86.5032 225.207 -83.68 191.112 -73.8195 162.413C-46.3881 82.581 15.6328 55.5387 78.6795 28.0453C116.054 11.7477 153.797 -4.70991 184.693 -32.4528C243.888 -85.6002 226.837 -141.345 206.446 -207.994C196.135 -241.706 184.972 -278.194 182.318 -318.576C177.068 -398.404 192.007 -458.544 217.491 -503.906L219.664 -503.906L219.664 -503.902Z" fill="white"/>
</mask>
<g mask="url(#mask25_1338_4091)">
<path d="M-162.948 764.727L246.25 764.727L246.25 -503.902L-162.948 -503.902L-162.948 764.727Z" fill="url(#paint25_linear_1338_4091)"/>
</g>
<mask id="mask26_1338_4091" style="mask-type:luminance" maskUnits="userSpaceOnUse" x="-151" y="-504" width="346" height="1269">
<path d="M176.128 -503.902C147.786 -456.922 131.847 -393.487 141.501 -307.748C145.953 -268.205 158.827 -232.782 170.723 -200.055C194.538 -134.525 214.456 -79.7209 155.706 -23.5922C125.314 5.44293 87.6446 23.404 50.34 41.1859C-11.6428 70.736 -72.6126 99.8031 -96.481 178.541C-105.087 206.93 -106.405 240.331 -95.4457 279.241C-85.925 313.042 -67.1472 350.976 -35.8542 393.363L-35.8383 393.386C49.0506 519.18 -29.541 640.579 -148.232 764.727L-150.601 764.727C-32.0275 640.893 46.7641 519.89 -37.6262 394.822C-69.0272 352.288 -87.8717 314.21 -97.4305 280.271C-108.485 241.022 -107.135 207.262 -98.4244 178.521C-74.1972 98.5909 -12.64 69.2454 49.9367 39.4137C87.0317 21.731 124.489 3.87548 154.524 -24.8238C212.068 -79.7977 192.35 -134.055 168.774 -198.926C156.852 -231.729 143.949 -267.239 139.475 -306.977C129.802 -392.902 145.623 -456.618 173.89 -503.906L176.128 -503.906L176.128 -503.902Z" fill="white"/>
</mask>
<g mask="url(#mask26_1338_4091)">
<path d="M-150.589 764.727L214.461 764.727L214.461 -503.902L-150.589 -503.902L-150.589 764.727Z" fill="url(#paint26_linear_1338_4091)"/>
</g>
<mask id="mask27_1338_4091" style="mask-type:luminance" maskUnits="userSpaceOnUse" x="-141" y="-504" width="302" height="1269">
<path d="M133.021 -503.902C100.568 -454.91 82.6321 -387.317 97.6467 -294.115C103.9 -255.304 118.492 -220.908 131.973 -189.135C158.966 -125.518 181.538 -72.3094 124.573 -14.4118C95.1125 15.5318 57.792 34.8683 20.8335 54.0193C-40.5745 85.8341 -100.979 117.131 -121.646 195.833C-128.601 222.319 -128.944 252.835 -118.547 287.602C-108.124 322.453 -86.9267 361.561 -50.8129 405.138L-50.7939 405.157C37.8868 521.947 -29.1612 641.277 -137.804 764.727L-140.1 764.727C-31.6033 641.629 35.5908 522.721 -52.5532 406.641C-88.7844 362.917 -110.058 323.659 -120.525 288.652C-131.018 253.558 -130.662 222.706 -123.622 195.897C-102.643 116.011 -41.6542 84.4139 20.3445 52.292C57.0934 33.2529 94.2043 14.0252 123.325 -15.5761C179.119 -72.2806 156.768 -124.955 130.048 -187.935C116.539 -219.782 101.912 -254.249 95.627 -293.261C80.5838 -386.664 98.3549 -454.571 130.718 -503.906L133.021 -503.906L133.021 -503.902Z" fill="white"/>
</mask>
<g mask="url(#mask27_1338_4091)">
<path d="M-140.057 764.727L181.578 764.727L181.578 -503.902L-140.057 -503.902L-140.057 764.727Z" fill="url(#paint27_linear_1338_4091)"/>
</g>
<defs>
<linearGradient id="paint0_linear_1338_4091" x1="468.428" y1="102.12" x2="-1619.17" y2="102.12" gradientUnits="userSpaceOnUse">
<stop stop-color="var(--primary)"/>
<stop offset="1" stop-color="var(--primary-dark)"/>
</linearGradient>
<linearGradient id="paint1_linear_1338_4091" x1="401.296" y1="102.12" x2="-1619.49" y2="102.12" gradientUnits="userSpaceOnUse">
<stop stop-color="var(--primary)"/>
<stop offset="1" stop-color="var(--primary-dark)"/>
</linearGradient>
<linearGradient id="paint2_linear_1338_4091" x1="325.139" y1="102.12" x2="-1619.82" y2="102.12" gradientUnits="userSpaceOnUse">
<stop stop-color="var(--primary)"/>
<stop offset="1" stop-color="var(--primary-dark)"/>
</linearGradient>
<linearGradient id="paint3_linear_1338_4091" x1="238.615" y1="102.12" x2="-1620.14" y2="102.12" gradientUnits="userSpaceOnUse">
<stop stop-color="var(--primary)"/>
<stop offset="1" stop-color="var(--primary-dark)"/>
</linearGradient>
<linearGradient id="paint4_linear_1338_4091" x1="141.2" y1="102.12" x2="-1620.34" y2="102.12" gradientUnits="userSpaceOnUse">
<stop stop-color="var(--primary)"/>
<stop offset="1" stop-color="var(--primary-dark)"/>
</linearGradient>
<linearGradient id="paint5_linear_1338_4091" x1="662.028" y1="367.967" x2="-931.339" y2="367.966" gradientUnits="userSpaceOnUse">
<stop stop-color="var(--primary)"/>
<stop offset="1" stop-color="var(--primary-dark)"/>
</linearGradient>
<linearGradient id="paint6_linear_1338_4091" x1="661.191" y1="353.837" x2="-895.236" y2="353.837" gradientUnits="userSpaceOnUse">
<stop stop-color="var(--primary)"/>
<stop offset="1" stop-color="var(--primary-dark)"/>
</linearGradient>
<linearGradient id="paint7_linear_1338_4091" x1="660.304" y1="337.506" x2="-857.01" y2="337.506" gradientUnits="userSpaceOnUse">
<stop stop-color="var(--primary)"/>
<stop offset="1" stop-color="var(--primary-dark)"/>
</linearGradient>
<linearGradient id="paint8_linear_1338_4091" x1="659.351" y1="318.137" x2="-815.945" y2="318.137" gradientUnits="userSpaceOnUse">
<stop stop-color="var(--primary)"/>
<stop offset="1" stop-color="var(--primary-dark)"/>
</linearGradient>
<linearGradient id="paint9_linear_1338_4091" x1="658.316" y1="294.784" x2="-771.329" y2="294.784" gradientUnits="userSpaceOnUse">
<stop stop-color="var(--primary)"/>
<stop offset="1" stop-color="var(--primary-dark)"/>
</linearGradient>
<linearGradient id="paint10_linear_1338_4091" x1="657.191" y1="267.057" x2="-722.827" y2="267.057" gradientUnits="userSpaceOnUse">
<stop stop-color="var(--primary)"/>
<stop offset="1" stop-color="var(--primary-dark)"/>
</linearGradient>
<linearGradient id="paint11_linear_1338_4091" x1="655.979" y1="236.304" x2="-670.547" y2="236.304" gradientUnits="userSpaceOnUse">
<stop stop-color="var(--primary)"/>
<stop offset="1" stop-color="var(--primary-dark)"/>
</linearGradient>
<linearGradient id="paint12_linear_1338_4091" x1="654.703" y1="205.118" x2="-615.554" y2="205.118" gradientUnits="userSpaceOnUse">
<stop stop-color="var(--primary)"/>
<stop offset="1" stop-color="var(--primary-dark)"/>
</linearGradient>
<linearGradient id="paint13_linear_1338_4091" x1="653.41" y1="173.632" x2="-559.827" y2="173.632" gradientUnits="userSpaceOnUse">
<stop stop-color="var(--primary)"/>
<stop offset="1" stop-color="var(--primary-dark)"/>
</linearGradient>
<linearGradient id="paint14_linear_1338_4091" x1="652.154" y1="143.113" x2="-505.65" y2="143.113" gradientUnits="userSpaceOnUse">
<stop stop-color="var(--primary)"/>
<stop offset="1" stop-color="var(--primary-dark)"/>
</linearGradient>
<linearGradient id="paint15_linear_1338_4091" x1="650.979" y1="115.397" x2="-455.015" y2="115.397" gradientUnits="userSpaceOnUse">
<stop stop-color="var(--primary)"/>
<stop offset="1" stop-color="var(--primary-dark)"/>
</linearGradient>
<linearGradient id="paint16_linear_1338_4091" x1="630.931" y1="102.122" x2="-408.851" y2="102.122" gradientUnits="userSpaceOnUse">
<stop stop-color="var(--primary)"/>
<stop offset="1" stop-color="var(--primary-dark)"/>
</linearGradient>
<linearGradient id="paint17_linear_1338_4091" x1="584.854" y1="102.12" x2="-367.073" y2="102.12" gradientUnits="userSpaceOnUse">
<stop stop-color="var(--primary)"/>
<stop offset="1" stop-color="var(--primary-dark)"/>
</linearGradient>
<linearGradient id="paint18_linear_1338_4091" x1="539.859" y1="102.122" x2="-330.268" y2="102.122" gradientUnits="userSpaceOnUse">
<stop stop-color="var(--primary)"/>
<stop offset="1" stop-color="var(--primary-dark)"/>
</linearGradient>
<linearGradient id="paint19_linear_1338_4091" x1="495.64" y1="102.12" x2="-297.638" y2="102.12" gradientUnits="userSpaceOnUse">
<stop stop-color="var(--primary)"/>
<stop offset="1" stop-color="var(--primary-dark)"/>
</linearGradient>
<linearGradient id="paint20_linear_1338_4091" x1="451.585" y1="102.12" x2="-268.95" y2="102.12" gradientUnits="userSpaceOnUse">
<stop stop-color="var(--primary)"/>
<stop offset="1" stop-color="var(--primary-dark)"/>
</linearGradient>
<linearGradient id="paint21_linear_1338_4091" x1="407.479" y1="102.12" x2="-243.615" y2="102.12" gradientUnits="userSpaceOnUse">
<stop stop-color="var(--primary)"/>
<stop offset="1" stop-color="var(--primary-dark)"/>
</linearGradient>
<linearGradient id="paint22_linear_1338_4091" x1="363.14" y1="102.12" x2="-221.294" y2="102.12" gradientUnits="userSpaceOnUse">
<stop stop-color="var(--primary)"/>
<stop offset="1" stop-color="var(--primary-dark)"/>
</linearGradient>
<linearGradient id="paint23_linear_1338_4091" x1="318.518" y1="102.12" x2="-201.592" y2="102.12" gradientUnits="userSpaceOnUse">
<stop stop-color="var(--primary)"/>
<stop offset="1" stop-color="var(--primary-dark)"/>
</linearGradient>
<linearGradient id="paint24_linear_1338_4091" x1="287.528" y1="102.12" x2="-184.436" y2="102.12" gradientUnits="userSpaceOnUse">
<stop stop-color="var(--primary)"/>
<stop offset="1" stop-color="var(--primary-dark)"/>
</linearGradient>
<linearGradient id="paint25_linear_1338_4091" x1="255.891" y1="102.12" x2="-169.375" y2="102.12" gradientUnits="userSpaceOnUse">
<stop stop-color="var(--primary)"/>
<stop offset="1" stop-color="var(--primary-dark)"/>
</linearGradient>
<linearGradient id="paint26_linear_1338_4091" x1="223.062" y1="102.12" x2="-156.323" y2="102.12" gradientUnits="userSpaceOnUse">
<stop stop-color="var(--primary)"/>
<stop offset="1" stop-color="var(--primary-dark)"/>
</linearGradient>
<linearGradient id="paint27_linear_1338_4091" x1="189.156" y1="102.12" x2="-145.109" y2="102.12" gradientUnits="userSpaceOnUse">
<stop stop-color="var(--primary)"/>
<stop offset="1" stop-color="var(--primary-dark)"/>
</linearGradient>
</defs>
</svg>
